name C:\Users\u0101727\Documents\MyRepositories\upper-imu-dc\Results\main_tracking\Case_64\kinematics.mot
datacolumns 10
datarows 47
range 5.00000000 5.46000000
endheader 
time	clav_prot	clav_elev	scapula_abduction	scapula_elevation	scapula_upward_rot	scapula_winging	plane_elv	shoulder_elv	axial_rot	
          5.00000000	        -23.77255393	          2.10606652	         -0.66358278	         -4.22200500	         35.93721509	         -1.98978273	         68.73867558	         46.18080976	        -22.87357172	
          5.01000000	        -23.72676951	          1.90530055	         -0.97219953	         -4.27271009	         35.35658191	         -1.81566682	         68.50546488	         45.78225876	        -22.67418243	
          5.02000000	        -23.69481873	          1.70049102	         -1.29718726	         -4.32658815	         34.78214894	         -1.63985866	         68.26040195	         45.38841190	        -22.48215303	
          5.03000000	        -23.67343008	          1.49159136	         -1.63266894	         -4.38358537	         34.21408289	         -1.46233908	         68.00344366	         44.99899700	        -22.29754285	
          5.04000000	        -23.65743049	          1.27861625	         -1.96943409	         -4.44350066	         33.65260191	         -1.28312712	         67.73443590	         44.61368363	        -22.12021817	
          5.05000000	        -23.64084262	          1.06165685	         -2.29691818	         -4.50603131	         33.09792569	         -1.10228657	         67.45318099	         44.23209340	        -21.94980701	
          5.06000000	        -23.61815168	          0.84089789	         -2.60547032	         -4.57082617	         32.55022200	         -0.91993040	         67.15952016	         43.85380882	        -21.78562013	
          5.07000000	        -23.58524686	          0.61662693	         -2.88802577	         -4.63752702	         32.00956647	         -0.73622259	         66.85341081	         43.47837699	        -21.62654877	
          5.08000000	        -23.53983883	          0.38923876	         -3.14083424	         -4.70578605	         31.47592659	         -0.55137674	         66.53497799	         43.10530687	        -21.47096869	
          5.09000000	        -23.48139358	          0.15923938	         -3.36332178	         -4.77525890	         30.94917159	         -0.36565126	         66.20452523	         42.73406242	        -21.31668647	
          5.10000000	        -23.41074358	         -0.07275274	         -3.55737853	         -4.84558334	         30.42909974	         -0.17934095	         65.86250249	         42.36405674	        -21.16095537	
          5.11000000	        -23.32956762	         -0.30601359	         -3.72641699	         -4.91635710	         29.91546969	          0.00723391	         65.50944177	         41.99465341	        -21.00056754	
          5.12000000	        -23.23989746	         -0.53973300	         -3.87448337	         -4.98712577	         29.40802530	          0.19373919	         65.14588043	         41.62517748	        -20.83200141	
          5.13000000	        -23.14376169	         -0.77304471	         -4.00561654	         -5.05738536	         28.90650968	          0.37983792	         64.77229830	         41.25493753	        -20.65159105	
          5.14000000	        -23.04283220	         -1.00506838	         -4.12321599	         -5.12659314	         28.41067110	          0.56519897	         64.38908090	         40.88325657	        -20.45569070	
          5.15000000	        -22.93798395	         -1.23496131	         -4.22927279	         -5.19417703	         27.92024806	          0.74950268	         63.99651266	         40.50952367	        -20.24080919	
          5.16000000	        -22.83325453	         -1.46170969	         -4.33134416	         -5.25961051	         27.43494833	          0.93247096	         63.59491398	         40.13329223	        -20.00374753	
          5.17000000	        -22.76097850	         -1.68190110	         -4.48674039	         -5.32228794	         26.95471578	          1.11389606	         63.18448739	         39.75425052	        -19.74166963	
          5.18000000	        -22.78399974	         -1.88932271	         -4.80579687	         -5.38150519	         26.48051929	          1.29360703	         62.76430166	         39.37146540	        -19.45218619	
          5.19000000	        -22.89422000	         -2.08538645	         -5.27388464	         -5.43782112	         26.01213010	          1.47173607	         62.33346140	         38.98450721	        -19.13346778	
          5.20000000	        -22.70787087	         -2.30151729	         -5.21708279	         -5.49144305	         25.54687712	          1.64804670	         61.89343167	         38.59467804	        -18.78461954	
          5.21000000	        -22.56012265	         -2.50833671	         -5.22629755	         -5.54038554	         25.08485234	          1.82164828	         61.44339266	         38.20207127	        -18.40526585	
          5.22000000	        -22.47539308	         -2.70255794	         -5.34302975	         -5.58414310	         24.62863608	          1.99233769	         60.98084421	         37.80571911	        -17.99578523	
          5.23000000	        -22.43411940	         -2.88589047	         -5.53220125	         -5.62300546	         24.17903057	          2.16013808	         60.50481750	         37.40601485	        -17.55752685	
          5.24000000	        -22.41767416	         -3.06050080	         -5.76076106	         -5.65753637	         23.73613582	          2.32506907	         60.01422687	         37.00352687	        -17.09255497	
          5.25000000	        -22.40984544	         -3.22844253	         -6.00004544	         -5.68833480	         23.29989549	          2.48710567	         59.50790408	         36.59883306	        -16.60357574	
          5.26000000	        -22.39676166	         -3.39149305	         -6.22554545	         -5.71594600	         22.87030337	          2.64617203	         58.98470067	         36.19250963	        -16.09376641	
          5.27000000	        -22.36730512	         -3.55108925	         -6.41758584	         -5.74085013	         22.44746665	          2.80214235	         58.44359341	         35.78512252	        -15.56660124	
          5.28000000	        -22.31446869	         -3.70822932	         -6.56367966	         -5.76347164	         22.03161581	          2.95484815	         57.88374633	         35.37721238	        -15.02567901	
          5.29000000	        -22.23652690	         -3.86338659	         -6.66054507	         -5.78419002	         21.62313109	          3.10408849	         57.30452881	         34.96926552	        -14.47458341	
          5.30000000	        -22.13668360	         -4.01652407	         -6.71343697	         -5.80334291	         21.22260565	          3.24963876	         56.70549859	         34.56167662	        -13.91678687	
          5.31000000	        -22.02134048	         -4.16720533	         -6.73306680	         -5.82122201	         20.83091982	          3.39125427	         56.08637115	         34.15471737	        -13.35559718	
          5.32000000	        -21.89817047	         -4.31472755	         -6.73220527	         -5.83806881	         20.44928635	          3.52866910	         55.44698878	         33.74851956	        -12.79413718	
          5.33000000	        -21.77478079	         -4.45822852	         -6.72334905	         -5.85407532	         20.07924355	          3.66159311	         54.78729226	         33.34307474	        -12.23534378	
          5.34000000	        -21.65802992	         -4.59676377	         -6.71755973	         -5.86939034	         19.72259697	          3.78971064	         54.10728983	         32.93824809	        -11.68197078	
          5.35000000	        -21.55380049	         -4.72936252	         -6.72411854	         -5.88412839	         19.38132438	          3.91268369	         53.40701767	         32.53380282	        -11.13658017	
          5.36000000	        -21.46703652	         -4.85506904	         -6.75065258	         -5.89837807	         19.05746139	          4.03016114	         52.68648895	         32.12942960	        -10.60151133	
          5.37000000	        -21.40189422	         -4.97297462	         -6.80346297	         -5.91220699	         18.75297868	          4.14179342	         51.94563035	         31.72477404	        -10.07882606	
          5.38000000	        -21.36189081	         -5.08224695	         -6.88785202	         -5.92566220	         18.46965343	          4.24725029	         51.18421013	         31.31945833	         -9.57023571	
          5.39000000	        -21.34995581	         -5.18216858	         -7.00828556	         -5.93876791	         18.20892767	          4.34624120	         50.40177160	         30.91309878	         -9.07701998	
          5.40000000	        -21.36824962	         -5.27220886	         -7.16816403	         -5.95152621	         17.97173199	          4.43854131	         49.59759334	         30.50532471	         -8.59994741	
          5.41000000	        -21.41745570	         -5.35216335	         -7.36870872	         -5.96392126	         17.75823944	          4.52402337	         48.77068666	         30.09579228	         -8.13920545	
          5.42000000	        -21.49480669	         -5.42245786	         -7.60570202	         -5.97594130	         17.56748293	          4.60270284	         47.91981295	         29.68417531	         -7.69434183	
          5.43000000	        -21.58972676	         -5.48466043	         -7.86217868	         -5.98757051	         17.39677817	          4.67478050	         47.04357592	         29.27008701	         -7.26422778	
          5.44000000	        -21.67650695	         -5.54266250	         -8.09601007	         -5.99904637	         17.24088011	          4.74089836	         46.14077523	         28.85296804	         -6.84706122	
          5.45000000	        -21.71453685	         -5.60718963	         -8.23952193	         -6.01421323	         17.09164737	          4.80418412	         45.20954609	         28.43191053	         -6.44034285	
          5.46000000	        -21.62673323	         -5.68789930	         -8.16608334	         -6.03240655	         16.93451272	          4.86610879	         44.24927659	         28.01093035	         -6.04051827	
